<?xml version="1.0" encoding="UTF-8" standalone="no"?>
<!DOCTYPE svg PUBLIC "-//W3C//DTD SVG 1.1//EN" "http://www.w3.org/Graphics/SVG/1.1/DTD/svg11.dtd">
<svg width="100%" height="100%" viewBox="0 0 1024 1024" version="1.1" xmlns="http://www.w3.org/2000/svg" xmlns:xlink="http://www.w3.org/1999/xlink" xml:space="preserve" xmlns:serif="http://www.serif.com/" style="fill-rule:evenodd;clip-rule:evenodd;stroke-linejoin:round;stroke-miterlimit:2;">
    <g transform="matrix(0.821777,0,0,0.821777,11.7549,412.98)">
        <path d="M5.521,203.885L39.651,197.957L39.411,213.645L151.69,213.764L151.57,182.389C151.57,182.389 61.922,182.535 37.684,182.449C22.482,182.395 12.401,169.036 12.278,155.564C12.197,146.682 12.424,136.698 12.518,128.919C12.72,112.156 25.83,100.788 42.935,100.515C65.568,100.153 128.609,100.479 152.642,100.694C177.508,100.917 182.91,117.42 182.88,135.303C182.868,142.193 149.229,141.89 149.229,141.89L149.469,125.543L45.566,125.184L45.566,155.721C45.566,155.721 136.988,155.553 160.634,155.422C179.07,155.32 184.565,169.962 184.884,182.546C185.168,193.723 184.704,203.228 184.824,217.993C184.917,229.467 175.197,240.823 147.88,240.598C123.687,240.4 65.559,240.466 41.402,240.419C10.998,240.359 5.587,226.914 5.476,213.594C5.449,210.358 5.521,203.885 5.521,203.885Z" style="fill:white;"/>
    </g>
    <g transform="matrix(0.821777,0,0,0.821777,11.7549,412.98)">
        <path d="M203.525,240.597L203.525,100.408L241.513,100.644L241.479,154.685L354.6,154.618L354.431,100.543L392.367,100.577L392.3,240.732L354.751,240.529L354.582,181.52L241.583,181.621L241.65,240.561L203.525,240.597Z" style="fill:white;"/>
    </g>
    <g transform="matrix(0.821777,0,0,0.821777,11.7549,412.98)">
        <path d="M203.477,92.614L222.785,92.772L222.522,7.543L245.565,7.754L245.513,0.441L180.696,0.388L180.907,7.543L203.687,7.596L203.477,92.614Z" style="fill:white;"/>
    </g>
    <g transform="matrix(0.821777,0,0,0.821777,11.7549,412.98)">
        <path d="M259.435,0.546L278.428,0.336L278.48,43.582L306.627,43.687L306.574,0.441L325.514,0.494L325.567,92.299L306.785,92.404L306.732,48.843L278.48,48.474L278.585,92.509L259.646,92.562L259.435,0.546Z" style="fill:white;"/>
    </g>
    <g transform="matrix(0.821777,0,0,0.821777,11.7549,412.98)">
        <path d="M394,7L368,7L368,43L394,43L394,49L368,49L368,85L394,85L394,92C394,92 365.171,92.14 357,92C350.202,91.884 345.967,88.438 346,82C346.071,68.046 345.895,22.561 346,9C346.045,3.232 348.285,0.032 355,0C360.264,-0.025 394,0 394,0L394,7Z" style="fill:white;"/>
    </g>
    <g transform="matrix(0.821777,0,0,0.821777,11.7549,412.98)">
        <path d="M392,240.732C389.396,228.156 400.222,218.277 405.687,208.642C409.555,201.823 413.244,194.866 416.207,187.609C425.022,166.022 432.343,143.408 434,120C435.68,96.272 431.128,73.236 425.312,50.291C423.411,42.794 420.871,35.462 418.178,28.212C414.894,19.371 407.596,10.151 411,0L420,0C459.252,19.614 495.058,44.989 527.773,74.136C545.882,90.271 565.073,107.347 579.02,127.544C603.542,163.058 621.389,201.899 640,240.732L587.329,240C575.731,211.749 563.966,182.86 546.338,157.652C525.944,128.488 500.083,103.854 473.89,80C474.149,104.59 474.326,124.89 471.155,149.38C467.084,180.832 453.427,211.876 440,240L392,240.732Z" style="fill:white;"/>
    </g>
    <g transform="matrix(0.821777,0,0,0.821777,11.7549,412.98)">
        <path d="M639,240.732L639,100C639,100 753.265,99.962 782,100C795.753,100.018 809.778,111.013 810,122C810.25,134.331 810.08,156.905 810,168.5C809.938,177.576 797.484,188.051 788,188C778.431,187.949 756,188 756,188L826,241L773,241L710,189L677,189L677,241L639,240.732ZM677,126L677,163C677,163 749.958,163.078 766,163C770.491,162.978 772.928,159.983 773,156C773.096,150.704 772.992,136.729 773,132C773.005,128.723 770.49,126.061 764,126C747.969,125.849 677,126 677,126Z" style="fill:white;"/>
    </g>
    <g transform="matrix(0.821777,0,0,0.821777,11.7549,412.98)">
        <path d="M840,241L840,100L878,99.983L878,158L963,100L1016,100L914,167L1029,241L969,241L877,180L877,241L840,241Z" style="fill:white;"/>
    </g>
    <g transform="matrix(0.821777,0,0,0.821777,11.7549,412.98)">
        <path d="M1033,203L1066,197L1066,213L1177,213L1177,183C1177,183 1087.37,183.323 1064,183C1050.05,182.807 1039.35,172.826 1039,158C1038.74,147.17 1039,133.961 1039,123C1039,108.956 1049,100.277 1070,100C1093.81,99.686 1156.55,99.872 1180,99.983C1201.41,100.085 1209.11,110.328 1209,122C1208.96,126.333 1209,135 1209,135L1175,142L1175,126L1073,126L1073,155C1073,155 1163.37,155.32 1187,155C1203.42,154.777 1211.99,168.449 1212,183C1212.01,195.52 1211.89,207.338 1212,218C1212.13,231.443 1203.35,240.991 1185,241C1160.37,241.012 1090.38,240.83 1066,241C1055.36,241.074 1043.9,236.253 1039,232C1034.7,228.266 1033.08,221.549 1033,216C1032.93,211.667 1033,203 1033,203Z" style="fill:white;"/>
    </g>
    <g transform="matrix(0.821777,0,0,0.821777,11.7549,412.98)">
        <rect x="676" y="93" width="95" height="4" style="fill:white;"/>
    </g>
    <g transform="matrix(0.821777,0,0,0.821777,11.7549,412.98)">
        <path d="M660.492,37.677C659.695,37.888 658.86,38 658,38C652.481,38 648,33.388 648,27.708C648,22.028 652.481,17.417 658,17.417C663.519,17.417 668,22.028 668,27.708C668,29.774 667.407,31.698 666.388,33.311C676.429,41.381 697.522,59.155 708,42C712.297,34.964 716.195,27.681 719.855,20.294C716.136,18.793 713.5,15.065 713.5,10.708C713.5,5.028 717.981,0.417 723.5,0.417C729.019,0.417 733.5,5.028 733.5,10.708C733.5,15.052 730.879,18.772 727.177,20.281C734.095,31.336 743.531,58.124 761.528,48.102C765.405,45.943 768.906,43.165 772.5,40.563C775.399,38.463 778.208,36.24 781,34C780.955,33.845 780.944,33.717 780.962,33.613C779.64,31.868 778.851,29.674 778.851,27.292C778.851,21.612 783.332,17 788.851,17C794.371,17 798.851,21.612 798.851,27.292C798.851,32.972 794.371,37.583 788.851,37.583C787.754,37.583 786.698,37.401 785.71,37.064L771,91L676,91L661,38C660.81,37.892 660.641,37.785 660.492,37.677Z" style="fill:white;"/>
    </g>
</svg>
