<?xml version="1.0" encoding="UTF-8" standalone="no"?>
<!DOCTYPE svg PUBLIC "-//W3C//DTD SVG 1.1//EN" "http://www.w3.org/Graphics/SVG/1.1/DTD/svg11.dtd">
<svg width="100%" height="100%" viewBox="0 0 456 456" version="1.1" xmlns="http://www.w3.org/2000/svg" xmlns:xlink="http://www.w3.org/1999/xlink" xml:space="preserve" xmlns:serif="http://www.serif.com/" style="fill-rule:evenodd;clip-rule:evenodd;stroke-linejoin:round;stroke-miterlimit:2;">
    <g transform="matrix(0.66464,0,0,0.66464,-114.824,148)">
        <path d="M392,240.732C389.412,228.238 400.281,218.194 405.687,208.642C409.549,201.82 413.238,194.864 416.207,187.609C425.028,166.055 432.488,143.413 434,120C435.52,96.47 430.996,72.987 425.312,50.291C423.433,42.788 420.857,35.467 418.178,28.212C414.983,19.559 407.65,9.991 411,0L420,0C459.155,19.566 494.915,45.352 527.773,74.136C546.277,90.346 565.158,106.958 579.02,127.544C603.006,163.168 621.494,202.117 640,240.732L587.329,240C575.71,211.698 564.046,182.861 546.338,157.652C525.913,128.575 500.036,103.81 473.89,80C474.22,111.384 474.687,143.102 466.57,173.708C460.705,195.823 449.389,220.334 440,240L392,240.732Z" style="fill:white;stroke:white;stroke-width:1px;"/>
    </g>
</svg>
